<?xml version="1.0" encoding="utf-8"?>
<svg version="1.1" xmlns:xlink="http://www.w3.org/1999/xlink" width="50px" height="50px" xmlns="http://www.w3.org/2000/svg">
  <g transform="matrix(1 0 0 1 -97 -685 )">
    <path d="M 48.7432065217391 22.1116816431322  C 49.5810688405797 22.8605049208387  50 23.8232777064613  50 25  C 50 26.1553273427471  49.5810688405797 27.1287976037655  48.7432065217391 27.9204107830552  L 26.6304347826087 48.8125802310655  C 25.7472826086957 49.6041934103552  24.7169384057971 50  23.539402173913 50  C 22.3845108695652 50  21.3654891304348 49.6041934103552  20.4823369565217 48.8125802310655  L 17.9347826086957 46.405648267009  C 17.0742753623188 45.5926401369277  16.6440217391304 44.6191698759093  16.6440217391304 43.4852374839538  C 16.6440217391304 42.3513050919983  17.0742753623188 41.3778348309799  17.9347826086957 40.5648267008986  L 27.8872282608696 31  L 3.9741847826087 31  C 2.79664855072464 31.1617458279846  1.83990036231884 30.7605905006419  1.1039402173913 29.9582798459564  C 0.367980072463768 29.1559691912709  0 28.1878476679504  0 27.0539152759949  L 0 22.9460847240051  C 0 21.8121523320496  0.367980072463768 20.8440308087291  1.1039402173913 20.0417201540436  C 1.83990036231884 19.2394094993582  2.79664855072464 18.8382541720154  3.9741847826087 19  L 27.8872282608696 19  L 17.9347826086957 9.40308087291399  C 17.0742753623188 8.63286264441592  16.6440217391304 7.67008985879333  16.6440217391304 6.51476251604621  C 16.6440217391304 5.3594351732991  17.0742753623188 4.39666238767651  17.9347826086957 3.62644415917843  L 20.4823369565217 1.21951219512195  C 21.3428442028986 0.406504065040647  22.361865942029 0  23.539402173913 0  C 24.7395833333333 0  25.7699275362319 0.406504065040647  26.6304347826087 1.21951219512195  L 48.7432065217391 22.1116816431322  Z " fill-rule="nonzero" fill="#e8b913" stroke="none" transform="matrix(1 0 0 1 97 685 )" />
  </g>
</svg>