<?xml version="1.0" encoding="utf-8"?>
<svg version="1.1" xmlns:xlink="http://www.w3.org/1999/xlink" width="50px" height="50px" xmlns="http://www.w3.org/2000/svg">
  <g transform="matrix(1 0 0 1 -97 -690 )">
    <path d="M 49.0967741935484 6.9023569023569  C 49.6989247311828 7.68799102132435  50 8.64197530864197  50 9.76430976430976  C 50 10.8866442199775  49.6989247311828 11.8406285072952  49.0967741935484 12.6262626262626  L 25.741935483871 43.0976430976431  L 21.3548387096774 48.8215488215488  C 20.752688172043 49.6071829405163  20.0215053763441 50  19.1612903225806 50  C 18.3010752688172 50  17.5698924731183 49.6071829405163  16.9677419354839 48.8215488215488  L 12.5806451612903 43.0976430976431  L 0.903225806451613 27.8619528619529  C 0.301075268817205 27.0763187429854  0 26.1223344556678  0 25  C 0 23.8776655443322  0.301075268817205 22.9236812570146  0.903225806451613 22.1380471380471  L 5.29032258064516 16.4141414141414  C 5.89247311827957 15.628507295174  6.6236559139785 15.2356902356902  7.48387096774194 15.2356902356902  C 8.34408602150538 15.2356902356902  9.0752688172043 15.628507295174  9.67741935483871 16.4141414141414  L 19.1612903225806 28.8299663299663  L 40.3225806451613 1.17845117845118  C 40.9247311827957 0.392817059483724  41.6559139784946 0  42.5161290322581 0  C 43.3763440860215 0  44.1075268817204 0.392817059483724  44.7096774193548 1.17845117845118  L 49.0967741935484 6.9023569023569  Z " fill-rule="nonzero" fill="#e8b913" stroke="none" transform="matrix(1 0 0 1 97 690 )" />
  </g>
</svg>