<?xml version="1.0" encoding="utf-8"?>
<svg version="1.1" xmlns:xlink="http://www.w3.org/1999/xlink" width="50px" height="50px" xmlns="http://www.w3.org/2000/svg">
  <g transform="matrix(1 0 0 1 -20 -150 )">
    <path d="M 48.3173076923077 17.9269061121613  C 49.4391025641026 18.1159420289855  50 18.5990338164251  50 19.3761814744802  C 50 19.8382692711615  49.7395833333333 20.3423650493594  49.21875 20.8884688090737  L 38.3112980769231 32.0415879017013  L 40.8954326923077 47.7945809703844  C 40.9154647435897 47.9416089056921  40.9254807692308 48.1516488132745  40.9254807692308 48.4247006931317  C 40.9254807692308 48.8657844990548  40.8203125 49.2386053350137  40.6099759615385 49.5431632010082  C 40.3996394230769 49.8477210670027  40.0941506410256 50  39.6935096153846 50  C 39.3129006410256 50  38.9122596153846 49.8739760554505  38.4915865384615 49.6219281663516  L 25 42.1865154379332  L 11.5084134615385 49.6219281663516  C 11.0677083333333 49.8739760554505  10.6670673076923 50  10.3064903846154 50  C 9.88581730769231 50  9.5703125 49.8477210670027  9.35997596153846 49.5431632010082  C 9.14963942307692 49.2386053350137  9.04447115384615 48.8657844990548  9.04447115384615 48.4247006931317  C 9.04447115384615 48.2986767485822  9.06450320512821 48.0886368409998  9.10456730769231 47.7945809703844  L 11.6887019230769 32.0415879017013  L 0.751201923076923 20.8884688090737  C 0.250400641025641 20.3213610586011  0 19.8172652804033  0 19.3761814744802  C 0 18.5990338164251  0.560897435897436 18.1159420289855  1.68269230769231 17.9269061121613  L 16.7668269230769 15.6269691241336  L 23.5276442307692 1.29174543163201  C 23.9082532051282 0.430581810544001  24.3990384615385 0  25 0  C 25.6009615384615 0  26.0917467948718 0.430581810544001  26.4723557692308 1.29174543163201  L 33.2331730769231 15.6269691241336  L 48.3173076923077 17.9269061121613  Z " fill-rule="nonzero" fill="#000000" stroke="none" transform="matrix(1 0 0 1 20 150 )" />
  </g>
</svg>