<?xml version="1.0" encoding="utf-8"?>
<svg version="1.1" xmlns:xlink="http://www.w3.org/1999/xlink" width="50px" height="50px" xmlns="http://www.w3.org/2000/svg">
  <g transform="matrix(1 0 0 1 -20 -225 )">
    <path d="M 48.9583333333333 3.57142857142857  L 45.8333333333333 3.57142857142857  C 45.8333333333333 8.42633928571428  44.677734375 12.7185639880952  42.3665364583333 16.4481026785714  C 40.0553385416667 20.1776413690476  37.1636284722222 23.0282738095238  33.69140625 25  C 37.1636284722222 26.9717261904762  40.0553385416667 29.8223586309524  42.3665364583333 33.5518973214286  C 44.677734375 37.2814360119048  45.8333333333333 41.5736607142857  45.8333333333333 46.4285714285714  L 48.9583333333333 46.4285714285714  C 49.2621527777778 46.4285714285714  49.51171875 46.5122767857143  49.70703125 46.6796875  C 49.90234375 46.8470982142857  50 47.0610119047619  50 47.3214285714286  L 50 49.1071428571429  C 50 49.3675595238095  49.90234375 49.5814732142857  49.70703125 49.7488839285714  C 49.51171875 49.9162946428571  49.2621527777778 50  48.9583333333333 50  L 1.04166666666667 50  C 0.737847222222222 50  0.48828125 49.9162946428571  0.29296875 49.7488839285714  C 0.09765625 49.5814732142857  0 49.3675595238095  0 49.1071428571429  L 0 47.3214285714286  C 0 47.0610119047619  0.09765625 46.8470982142857  0.29296875 46.6796875  C 0.48828125 46.5122767857143  0.737847222222222 46.4285714285714  1.04166666666667 46.4285714285714  L 4.16666666666667 46.4285714285714  C 4.16666666666667 41.5736607142857  5.322265625 37.2814360119048  7.63346354166667 33.5518973214286  C 9.94466145833333 29.8223586309524  12.8363715277778 26.9717261904762  16.30859375 25  C 12.8363715277778 23.0282738095238  9.94466145833333 20.1776413690476  7.63346354166667 16.4481026785714  C 5.322265625 12.7185639880952  4.16666666666667 8.42633928571428  4.16666666666667 3.57142857142857  L 1.04166666666667 3.57142857142857  C 0.737847222222222 3.57142857142857  0.48828125 3.48772321428572  0.29296875 3.3203125  C 0.09765625 3.15290178571428  0 2.93898809523809  0 2.67857142857143  L 0 0.892857142857145  C 0 0.632440476190471  0.09765625 0.418526785714285  0.29296875 0.25111607142857  C 0.48828125 0.0837053571428548  0.737847222222222 0  1.04166666666667 0  L 48.9583333333333 0  C 49.2621527777778 0  49.51171875 0.0837053571428548  49.70703125 0.25111607142857  C 49.90234375 0.418526785714285  50 0.632440476190471  50 0.892857142857145  L 50 2.67857142857143  C 50 2.93898809523809  49.90234375 3.15290178571428  49.70703125 3.3203125  C 49.51171875 3.48772321428572  49.2621527777778 3.57142857142857  48.9583333333333 3.57142857142857  Z M 27.4576822916667 23.9815848214286  C 27.7072482638889 23.6746651785714  28.0381944444444 23.4561011904762  28.4505208333333 23.3258928571429  C 30.1215277777778 22.7864583333333  31.73828125 21.9261532738095  33.30078125 20.7449776785714  C 34.86328125 19.5638020833333  36.2684461805556 18.1454613095238  37.5162760416667 16.4899553571429  C 38.7641059027778 14.8344494047619  39.7677951388889 12.8813244047619  40.52734375 10.6305803571429  C 41.2868923611111 8.37983630952381  41.6666666666667 6.02678571428572  41.6666666666667 4  L 8.33333333333333 4  C 8.33333333333333 6.02678571428572  8.71310763888889 8.37983630952381  9.47265625 10.6305803571429  C 10.2322048611111 12.8813244047619  11.2358940972222 14.8344494047619  12.4837239583333 16.4899553571429  C 13.7315538194444 18.1454613095238  15.13671875 19.5638020833333  16.69921875 20.7449776785714  C 18.26171875 21.9261532738095  19.8784722222222 22.7864583333333  21.5494791666667 23.3258928571429  C 21.9618055555556 23.4561011904762  22.2927517361111 23.6746651785714  22.5423177083333 23.9815848214286  C 22.7918836805556 24.2885044642857  22.9166666666667 24.6279761904762  22.9166666666667 25  C 22.9166666666667 25.3720238095238  22.7918836805556 25.7114955357143  22.5423177083333 26.0184151785714  C 22.2927517361111 26.3253348214286  21.9618055555556 26.5438988095238  21.5494791666667 26.6741071428571  C 18.5763888888889 27.6227678571429  15.9288194444444 29.4456845238095  13.6067708333333 32  L 36.3932291666667 32  C 34.0711805555556 29.4456845238095  31.4236111111111 27.6227678571429  28.4505208333333 26.6741071428571  C 28.0381944444444 26.5438988095238  27.7072482638889 26.3253348214286  27.4576822916667 26.0184151785714  C 27.2081163194444 25.7114955357143  27.0833333333333 25.3720238095238  27.0833333333333 25  C 27.0833333333333 24.6279761904762  27.2081163194444 24.2885044642857  27.4576822916667 23.9815848214286  Z " fill-rule="nonzero" fill="#000000" stroke="none" transform="matrix(1 0 0 1 20 225 )" />
  </g>
</svg>