<?xml version="1.0" encoding="utf-8"?>
<svg version="1.1" xmlns:xlink="http://www.w3.org/1999/xlink" width="50px" height="50px" xmlns="http://www.w3.org/2000/svg">
  <g transform="matrix(1 0 0 1 -20 -300 )">
    <path d="M 47.2098214285714 19.2116477272727  C 48.2700892857143 18.2883522727273  49.2001488095238 17.2585227272727  50 16.1221590909091  L 50 44.3181818181818  C 50 45.8806818181818  49.5628720238095 47.2182765151515  48.6886160714286 48.3309659090909  C 47.8143601190476 49.4436553030303  46.7633928571429 50  45.5357142857143 50  L 4.46428571428571 50  C 3.23660714285714 50  2.18563988095238 49.4436553030303  1.31138392857143 48.3309659090909  C 0.437127976190476 47.2182765151515  0 45.8806818181818  0 44.3181818181818  L 0 16.1221590909091  C 0.818452380952381 17.282196969697  1.7578125 18.3120265151515  2.81808035714286 19.2116477272727  C 9.55171130952381 25.0355113636364  14.1741071428571 29.1193181818182  16.6852678571429 31.4630681818182  C 17.7455357142857 32.4573863636364  18.6058407738095 33.2327178030303  19.2661830357143 33.7890625  C 19.9265252976191 34.3454071969697  20.8054315476191 34.9135890151515  21.9029017857143 35.4936079545455  C 23.0003720238095 36.0736268939394  24.0234375 36.3636363636364  24.9720982142857 36.3636363636364  L 25 36.3636363636364  L 25.0279017857143 36.3636363636364  C 25.9765625 36.3636363636364  26.9996279761905 36.0736268939394  28.0970982142857 35.4936079545455  C 29.194568452381 34.9135890151515  30.073474702381 34.3454071969697  30.7338169642857 33.7890625  C 31.3941592261905 33.2327178030303  32.2544642857143 32.4573863636364  33.3147321428571 31.4630681818182  C 36.4769345238095 28.5511363636364  41.108630952381 24.4673295454545  47.2098214285714 19.2116477272727  Z M 48.6746651785714 1.66903409090909  C 49.5582217261905 2.78172348484848  50 4.11931818181818  50 5.68181818181818  C 50 7.55208333333333  49.5442708333333 9.33948863636363  48.6328125 11.0440340909091  C 47.7213541666667 12.7485795454545  46.5866815476191 14.2045454545455  45.2287946428571 15.4119318181818  C 38.2347470238095 21.5909090909091  33.882068452381 25.4379734848485  32.1707589285714 26.953125  C 31.9847470238095 27.1188446969697  31.5894717261905 27.4798768939394  30.9849330357143 28.0362215909091  C 30.3803943452381 28.5925662878788  29.878162202381 29.0423768939394  29.4782366071429 29.3856534090909  C 29.0783110119048 29.7289299242424  28.5946800595238 30.1136363636364  28.02734375 30.5397727272727  C 27.4600074404762 30.9659090909091  26.9252232142857 31.2855113636364  26.4229910714286 31.4985795454545  C 25.9207589285714 31.7116477272727  25.4557291666667 31.8181818181818  25.0279017857143 31.8181818181818  L 25 31.8181818181818  L 24.9720982142857 31.8181818181818  C 24.5442708333333 31.8181818181818  24.0792410714286 31.7116477272727  23.5770089285714 31.4985795454545  C 23.0747767857143 31.2855113636364  22.5399925595238 30.9659090909091  21.97265625 30.5397727272727  C 21.4053199404762 30.1136363636364  20.9216889880952 29.7289299242424  20.5217633928571 29.3856534090909  C 20.1218377976191 29.0423768939394  19.6196056547619 28.5925662878788  19.0150669642857 28.0362215909091  C 18.4105282738095 27.4798768939394  18.0152529761905 27.1188446969697  17.8292410714286 26.953125  C 16.1365327380952 25.4379734848485  13.6997767857143 23.2776988636364  10.5189732142857 20.4723011363636  C 7.33816964285714 17.6669034090909  5.43154761904762 15.9801136363636  4.79910714285714 15.4119318181818  C 3.64583333333333 14.4176136363636  2.55766369047619 13.0504261363636  1.53459821428571 11.3103693181818  C 0.511532738095238 9.5703125  0 7.95454545454545  0 6.46306818181818  C 0 4.61647727272727  0.385974702380953 3.07765151515151  1.15792410714286 1.84659090909091  C 1.92987351190476 0.615530303030298  3.03199404761905 0  4.46428571428571 0  L 45.5357142857143 0  C 46.7447916666667 0  47.7911086309524 0.556344696969691  48.6746651785714 1.66903409090909  Z " fill-rule="nonzero" fill="#000000" stroke="none" transform="matrix(1 0 0 1 20 300 )" />
  </g>
</svg>