<?xml version="1.0" encoding="utf-8"?>
<svg version="1.1" xmlns:xlink="http://www.w3.org/1999/xlink" width="50px" height="50px" xmlns="http://www.w3.org/2000/svg">
  <g transform="matrix(1 0 0 1 -300 -10 )">
    <path d="M 25 47.7678571428571  C 25.3205128205128 47.7678571428571  25.4807692307692 47.6190476190476  25.4807692307692 47.3214285714286  C 25.4807692307692 47.0238095238095  25.3205128205128 46.875  25 46.875  C 23.818108974359 46.875  22.8014823717949 46.4797247023809  21.9501201923077 45.6891741071429  C 21.0987580128205 44.8986235119048  20.6730769230769 43.9546130952381  20.6730769230769 42.8571428571429  C 20.6730769230769 42.5595238095238  20.5128205128205 42.4107142857143  20.1923076923077 42.4107142857143  C 19.8717948717949 42.4107142857143  19.7115384615385 42.5595238095238  19.7115384615385 42.8571428571429  C 19.7115384615385 44.2150297619048  20.2273637820513 45.3729538690476  21.2590144230769 46.3309151785714  C 22.2906650641026 47.2888764880952  23.5376602564103 47.7678571428571  25 47.7678571428571  Z M 47.265625 36.8303571428571  C 48.0869391025641 37.6860119047619  48.9983974358974 38.5044642857143  50 39.2857142857143  C 50 40.2529761904762  49.619391025641 41.0900297619048  48.8581730769231 41.796875  C 48.0969551282051 42.5037202380952  47.1955128205128 42.8571428571429  46.1538461538462 42  L 32.6923076923077 42  C 32.6923076923077 44.8288690476191  31.9411057692308 46.5122767857143  30.4387019230769 47.9073660714286  C 28.9362980769231 49.3024553571429  27.1233974358974 50  25 50  C 22.8766025641026 50  21.0637019230769 49.3024553571429  19.5612980769231 47.9073660714286  C 18.0588942307692 46.5122767857143  17.3076923076923 44.8288690476191  17.3076923076923 42  L 3.84615384615385 42  C 2.80448717948718 42.8571428571429  1.90304487179487 42.5037202380952  1.14182692307692 41.796875  C 0.380608974358975 41.0900297619048  0 40.2529761904762  0 39.2857142857143  C 1.00160256410256 38.5044642857143  1.9130608974359 37.6860119047619  2.734375 36.8303571428571  C 3.5556891025641 35.9747023809524  4.40705128205128 34.86328125  5.28846153846154 33.49609375  C 6.1698717948718 32.12890625  6.91606570512821 30.6547619047619  7.52704326923077 29.0736607142857  C 8.13802083333333 27.4925595238095  8.63882211538462 25.5766369047619  9.02944711538462 23.3258928571429  C 9.42007211538462 21.0751488095238  9.61538461538462 18.656994047619  9.61538461538462 16.0714285714286  C 9.61538461538462 13.2440476190476  10.7872596153846 10.6166294642857  13.1310096153846 8.18917410714285  C 15.4747596153846 5.76171875  18.5496794871795 4.2875744047619  22.3557692307692 3.76674107142857  C 22.1955128205128 3.41331845238095  22.1153846153846 3.05059523809524  22.1153846153846 2.67857142857143  C 22.1153846153846 1.93452380952381  22.3958333333333 1.30208333333333  22.9567307692308 0.78125  C 23.5176282051282 0.260416666666669  24.1987179487179 0  25 0  C 25.8012820512821 0  26.4823717948718 0.260416666666669  27.0432692307692 0.78125  C 27.6041666666667 1.30208333333333  27.8846153846154 1.93452380952381  27.8846153846154 2.67857142857143  C 27.8846153846154 3.05059523809524  27.8044871794872 3.41331845238095  27.6442307692308 3.76674107142857  C 31.4503205128205 4.2875744047619  34.5252403846154 5.76171875  36.8689903846154 8.18917410714285  C 39.2127403846154 10.6166294642857  40.3846153846154 13.2440476190476  40.3846153846154 16.0714285714286  C 40.3846153846154 18.656994047619  40.5799278846154 21.0751488095238  40.9705528846154 23.3258928571429  C 41.3611778846154 25.5766369047619  41.8619791666667 27.4925595238095  42.4729567307692 29.0736607142857  C 43.0839342948718 30.6547619047619  43.8301282051282 32.12890625  44.7115384615385 33.49609375  C 45.5929487179487 34.86328125  46.4443108974359 35.9747023809524  47.265625 36.8303571428571  Z " fill-rule="nonzero" fill="#e8b913" stroke="none" transform="matrix(1 0 0 1 300 10 )" />
  </g>
</svg>