<?xml version="1.0" encoding="utf-8"?>
<svg version="1.1" xmlns:xlink="http://www.w3.org/1999/xlink" width="50px" height="50px" xmlns="http://www.w3.org/2000/svg">
  <g transform="matrix(1 0 0 1 -200 -10 )">
    <path d="M 13.5498046875 13.923860911271  C 13.9567057291667 13.4342525979217  14.16015625 12.7797761790568  14.16015625 11.9604316546763  C 14.16015625 11.1410871302958  13.9567057291667 10.4816147082334  13.5498046875 9.98201438848921  C 13.1429036458333 9.482414068745  12.6057942708333 9.2326139088729  11.9384765625 9.2326139088729  C 11.2386067708333 9.2326139088729  10.6201171875 9.48741007194245  10.0830078125 9.99700239808153  C 9.5458984375 10.5065947242206  9.27734375 11.1610711430855  9.27734375 11.9604316546763  C 9.27734375 12.7398081534772  9.5458984375 13.3842925659472  10.0830078125 13.8938848920863  C 10.6201171875 14.4034772182254  11.2386067708333 14.658273381295  11.9384765625 14.658273381295  C 12.6057942708333 14.658273381295  13.1429036458333 14.4134692246203  13.5498046875 13.923860911271  Z M 31.67724609375 28.6870503597122  C 32.09228515625 28.2474020783373  32.2998046875 27.7378097521982  32.2998046875 27.158273381295  C 32.2998046875 26.5987210231814  32.09228515625 26.0991207034373  31.67724609375 25.6594724220623  C 31.26220703125 25.2198241406874  30.7291666666667 25  30.078125 25  C 29.638671875 25  29.23583984375 25.2248201438849  28.86962890625 25.6744604316547  C 28.50341796875 26.1241007194245  28.3203125 26.6187050359712  28.3203125 27.158273381295  C 28.3203125 27.7178257394085  28.50341796875 28.2224220623501  28.86962890625 28.6720623501199  C 29.23583984375 29.1217026378897  29.638671875 29.3465227817746  30.078125 29.3465227817746  C 30.7291666666667 29.3465227817746  31.26220703125 29.1266986410871  31.67724609375 28.6870503597122  Z M 25.93994140625 13.923860911271  C 26.3387044270833 13.4342525979217  26.5380859375 12.7797761790568  26.5380859375 11.9604316546763  C 26.5380859375 11.1410871302958  26.3387044270833 10.4816147082334  25.93994140625 9.98201438848921  C 25.5411783854167 9.482414068745  25.0081380208333 9.2326139088729  24.3408203125 9.2326139088729  C 23.6409505208333 9.2326139088729  23.0224609375 9.48741007194245  22.4853515625 9.99700239808153  C 21.9482421875 10.5065947242206  21.6796875 11.1610711430855  21.6796875 11.9604316546763  C 21.6796875 12.7398081534772  21.9482421875 13.3842925659472  22.4853515625 13.8938848920863  C 23.0224609375 14.4034772182254  23.6409505208333 14.658273381295  24.3408203125 14.658273381295  C 25.0081380208333 14.658273381295  25.5411783854167 14.4134692246203  25.93994140625 13.923860911271  Z M 41.40625 28.6870503597122  C 41.8294270833333 28.2474020783373  42.041015625 27.7378097521982  42.041015625 27.158273381295  C 42.041015625 26.5987210231814  41.8294270833333 26.0991207034373  41.40625 25.6594724220623  C 40.9830729166667 25.2198241406874  40.4541015625 25  39.8193359375 25  C 39.3798828125 25  38.97705078125 25.2248201438849  38.61083984375 25.6744604316547  C 38.24462890625 26.1241007194245  38.0615234375 26.6187050359712  38.0615234375 27.158273381295  C 38.0615234375 27.7178257394085  38.24462890625 28.2224220623501  38.61083984375 28.6720623501199  C 38.97705078125 29.1217026378897  39.3798828125 29.3465227817746  39.8193359375 29.3465227817746  C 40.4541015625 29.3465227817746  40.9830729166667 29.1266986410871  41.40625 28.6870503597122  Z M 32.21435546875 7.44904076738609  C 33.9314778645833 9.77717825739408  35.0423177083333 12.3800959232614  35.546875 15.257793764988  C 35.0423177083333 15.1778577138289  34.47265625 15.1378896882494  33.837890625 15.1378896882494  C 31.0872395833333 15.1378896882494  28.5563151041667 15.9072741806555  26.2451171875 17.4460431654676  C 23.9339192708333 18.9848121502798  22.1150716145833 21.0681454836131  20.78857421875 23.6960431654676  C 19.4620768229167 26.3239408473221  18.798828125 29.1966426858513  18.798828125 32.3141486810552  C 18.798828125 33.8729016786571  18.9860026041667 35.3916866506795  19.3603515625 36.8705035971223  C 18.7906901041667 36.9304556354916  18.2373046875 36.9604316546763  17.7001953125 36.9604316546763  C 17.2770182291667 36.9604316546763  16.8701171875 36.9454436450839  16.4794921875 36.9154676258993  C 16.0888671875 36.8854916067146  15.6412760416667 36.8205435651479  15.13671875 36.720623501199  C 14.6321614583333 36.6207034372502  14.27001953125 36.550759392486  14.05029296875 36.5107913669065  C 13.83056640625 36.4708233413269  13.3870442708333 36.3659072741807  12.7197265625 36.1960431654676  C 12.0524088541667 36.0261790567546  11.6455078125 35.9212629896083  11.4990234375 35.8812949640288  L 5.322265625 39.6882494004796  L 7.080078125 33.1534772182254  C 2.36002604166667 29.0967226219025  0 24.2006394884093  0 18.4652278177458  C 0 15.087929656275  0.79345703125 11.980415667466  2.38037109375 9.14268585131894  C 3.96728515625 6.30495603517186  6.11572265625 4.07174260591526  8.82568359375 2.44304556354916  C 11.53564453125 0.81434852118305  14.4938151041667 0  17.7001953125 0  C 20.5647786458333 0  23.2706705729167 0.659472422062352  25.81787109375 1.97841726618705  C 28.3650716145833 3.29736211031175  30.4972330729167 5.1209032773781  32.21435546875 7.44904076738609  Z M 47.91259765625 24.1756594724221  C 49.30419921875 26.6037170263789  50 29.2366107114309  50 32.0743405275779  C 50 34.4124700239808  49.4425455729167 36.6456834532374  48.32763671875 38.7739808153477  C 47.2127278645833 40.902278177458  45.703125 42.8357314148681  43.798828125 44.5743405275779  L 45.1416015625 50  L 40.283203125 46.7326139088729  C 37.841796875 47.4720223820943  36.0677083333333 47.841726618705  34.9609375 47.841726618705  C 32.2102864583333 47.841726618705  29.6793619791667 47.1372901678657  27.3681640625 45.7284172661871  C 25.0569661458333 44.3195443645084  23.2381184895833 42.4060751398881  21.91162109375 39.9880095923261  C 20.5851236979167 37.5699440447642  19.921875 34.9320543565148  19.921875 32.0743405275779  C 19.921875 29.2166266986411  20.5851236979167 26.5787370103917  21.91162109375 24.1606714628297  C 23.2381184895833 21.7426059152678  25.0569661458333 19.8291366906475  27.3681640625 18.4202637889688  C 29.6793619791667 17.0113908872902  32.2102864583333 16.3069544364508  34.9609375 16.3069544364508  C 37.5813802083333 16.3069544364508  40.0472005208333 17.0113908872902  42.3583984375 18.4202637889688  C 44.6695963541667 19.8291366906475  46.52099609375 21.7476019184652  47.91259765625 24.1756594724221  Z " fill-rule="nonzero" fill="#e8b913" stroke="none" transform="matrix(1 0 0 1 200 10 )" />
  </g>
</svg>