<?xml version="1.0" encoding="utf-8"?>
<svg version="1.1" xmlns:xlink="http://www.w3.org/1999/xlink" width="25px" height="30px" xmlns="http://www.w3.org/2000/svg">
  <g transform="matrix(1 0 0 1 -315 -75 )">
    <path d="M 23.3235677083333 7.470703125  C 24.4411892361111 9.76888020833333  25 12.2786458333333  25 15  C 25 17.7213541666667  24.4411892361111 20.2311197916667  23.3235677083333 22.529296875  C 22.2059461805556 24.8274739583333  20.6895616319444 26.6471354166667  18.7744140625 27.98828125  C 16.8592664930556 29.3294270833333  14.7677951388889 30  12.5 30  C 10.2322048611111 30  8.14073350694444 29.3294270833333  6.2255859375 27.98828125  C 4.31043836805556 26.6471354166667  2.79405381944444 24.8274739583333  1.67643229166667 22.529296875  C 0.558810763888889 20.2311197916667  0 17.7213541666667  0 15  C 0 12.2786458333333  0.558810763888889 9.76888020833333  1.67643229166667 7.470703125  C 2.79405381944444 5.17252604166667  4.31043836805556 3.35286458333333  6.2255859375 2.01171875  C 8.14073350694444 0.670572916666664  10.2322048611111 0  12.5 0  C 14.7677951388889 0  16.8592664930556 0.670572916666664  18.7744140625 2.01171875  C 20.6895616319444 3.35286458333333  22.2059461805556 5.17252604166667  23.3235677083333 7.470703125  Z " fill-rule="nonzero" fill="#ffffff" stroke="none" transform="matrix(1 0 0 1 315 75 )" />
  </g>
</svg>