<?xml version="1.0" encoding="utf-8"?>
<svg version="1.1" xmlns:xlink="http://www.w3.org/1999/xlink" width="50px" height="50px" xmlns="http://www.w3.org/2000/svg">
  <g transform="matrix(1 0 0 1 -110 -10 )">
    <path d="M 42.8128872366791 28.5658612626656  C 42.8335398595622 28.6178228111198  42.8438661710037 28.695765133801  42 28.7996882307093  L 42 47.5058456742011  C 42.8438661710037 48.181345804105  42.6476662536142 48.7659132242141  42.2552664188352 49.2595479345284  C 41.8628665840562 49.7531826448428  41.3981825691863 50  40.8612143742255 50  L 29 50  L 29 35.0350740452065  L 21 35.0350740452065  L 21 50  L 9.13878562577447 50  C 8.60181743081371 50  8.13713341594383 49.7531826448428  7.74473358116481 49.2595479345284  C 7.35233374638579 48.7659132242141  7.15613382899628 48.181345804105  8 47.5058456742011  L 8 28.7996882307093  C 7.15613382899628 28.7737074564822  7.16129698471706 28.7347362951416  7.17162329615861 28.6827747466875  C 7.18194960760017 28.6308131982333  7.18711276332094 28.5918420368927  7.18711276332094 28.5658612626656  L 25 10.0935307872175  L 42.8128872366791 28.5658612626656  Z M 49.9690210656753 25.194855806703  C 49.9896736885584 25.5455962587685  49.9173895084676 25.8508703559366  49.7521685254027 26.1106780982073  L 47.8314745972739 28.9945440374123  C 47.666253614209 29.228371005456  47.4494010739364 29.3712652637049  47.180916976456 29.423226812159  L 47.087980173482 29.423226812159  C 46.8194960760017 29.423226812159  46.602643535729 29.3322941023642  46.4374225526642 29.1504286827747  L 25 6.66406858924396  L 3.56257744733581 29.1504286827747  C 3.31474597273854 29.3582748765913  3.06691449814126 29.4492075863861  2.81908302354399 29.423226812159  C 2.55059892606361 29.3712652637049  2.333746385791 29.228371005456  2.16852540272615 28.9945440374123  L 0.247831474597274 26.1106780982073  C 0.0826104915324247 25.8508703559366  0.0103263114415532 25.5455962587685  0.0309789343246592 25.194855806703  C 0.0516315572077655 24.8441153546376  0.165220983064849 24.5648220316965  0.371747211895911 24.35697583788  L 22.6456009913259 1.01325019485581  C 23.3064849235853 0.337750064951931  24.0912845931433 0  25 0  C 25.9087154068567 0  26.6935150764147 0.337750064951931  27.3543990086741 1.01325019485581  L 34.913258983891 8.96336710833983  L 34.913258983891 1.36399064692128  C 34.913258983891 1.00025980774227  35.0061957868649 0.701480904130941  35.1920693928129 0.467653936087298  C 35.3779429987608 0.233826968043649  35.6154481619166 0.116913484021824  35.90458488228 0.116913484021824  L 41.8525402726146 0.116913484021824  C 42.1416769929781 0.116913484021824  42.3791821561338 0.233826968043649  42.5650557620818 0.467653936087298  C 42.7509293680297 0.701480904130941  42.8438661710037 1.00025980774227  42 1.36399064692128  L 42 17.2642244738893  L 49.6282527881041 24.35697583788  C 49.8347790169352 24.5648220316965  49.9483684427922 24.8441153546376  49.9690210656753 25.194855806703  Z " fill-rule="nonzero" fill="#e8b913" stroke="none" transform="matrix(1 0 0 1 110 10 )" />
  </g>
</svg>