<?xml version="1.0" encoding="utf-8"?>
<svg version="1.1" xmlns:xlink="http://www.w3.org/1999/xlink" width="15px" height="23px" xmlns="http://www.w3.org/2000/svg">
  <g transform="matrix(1 0 0 1 -330 -89 )">
    <path d="M 14.7526041666667 9.10877403846154  C 14.9175347222222 9.28385416666666  15 9.49118589743589  15 9.73076923076923  L 15 11.5  C 15 13.5364583333333  14.3598090277778 15.3079927884615  13.0794270833333 16.8146033653846  C 11.7990451388889 18.3212139423077  10.2170138888889 19.1850961538462  8.33333333333333 19.40625  L 8.33333333333333 21.2307692307692  L 11.6666666666667 21.2307692307692  C 11.8923611111111 21.2307692307692  12.0876736111111 21.3183092948718  12.2526041666667 21.4933894230769  C 12.4175347222222 21.6684695512821  12.5 21.8758012820513  12.5 22.1153846153846  C 12.5 22.3549679487179  12.4175347222222 22.5622996794872  12.2526041666667 22.7373798076923  C 12.0876736111111 22.9124599358974  11.8923611111111 23  11.6666666666667 23  L 3.33333333333333 23  C 3.10763888888889 23  2.91232638888889 22.9124599358974  2.74739583333333 22.7373798076923  C 2.58246527777778 22.5622996794872  2.5 22.3549679487179  2.5 22.1153846153846  C 2.5 21.8758012820513  2.58246527777778 21.6684695512821  2.74739583333333 21.4933894230769  C 2.91232638888889 21.3183092948718  3.10763888888889 21.2307692307692  3.33333333333333 21.2307692307692  L 6.66666666666667 21.2307692307692  L 6.66666666666667 19.40625  C 4.78298611111111 19.1850961538462  3.20095486111111 18.3212139423077  1.92057291666667 16.8146033653846  C 0.640190972222222 15.3079927884615  0 13.5364583333333  0 11.5  L 0 9.73076923076923  C 0 9.49118589743589  0.0824652777777778 9.28385416666666  0.247395833333333 9.10877403846154  C 0.412326388888889 8.93369391025641  0.607638888888889 8.84615384615384  0.833333333333333 8.84615384615384  C 1.05902777777778 8.84615384615384  1.25434027777778 8.93369391025641  1.41927083333333 9.10877403846154  C 1.58420138888889 9.28385416666666  1.66666666666667 9.49118589743589  1.66666666666667 9.73076923076923  L 1.66666666666667 11.5  C 1.66666666666667 13.2047275641026  2.23741319444444 14.6629607371795  3.37890625 15.8746995192308  C 4.52039930555556 17.086438301282  5.89409722222222 17.6923076923077  7.5 17.6923076923077  C 9.10590277777778 17.6923076923077  10.4796006944444 17.086438301282  11.62109375 15.8746995192308  C 12.7625868055556 14.6629607371795  13.3333333333333 13.2047275641026  13.3333333333333 11.5  L 13.3333333333333 9.73076923076923  C 13.3333333333333 9.49118589743589  13.4157986111111 9.28385416666666  13.5807291666667 9.10877403846154  C 13.7456597222222 8.93369391025641  13.9409722222222 8.84615384615384  14.1666666666667 8.84615384615384  C 14.3923611111111 8.84615384615384  14.5876736111111 8.93369391025641  14.7526041666667 9.10877403846154  Z M 10.4427083333333 1.29927884615385  C 11.2586805555556 2.16546474358974  11.6666666666667 3.20673076923077  11.6666666666667 4.42307692307692  L 11.6666666666667 11.5  C 11.6666666666667 12.7163461538462  11.2586805555556 13.7576121794872  10.4427083333333 14.6237980769231  C 9.62673611111111 15.489983974359  8.64583333333333 15.9230769230769  7.5 15.9230769230769  C 6.35416666666667 15.9230769230769  5.37326388888889 15.489983974359  4.55729166666667 14.6237980769231  C 3.74131944444445 13.7576121794872  3.33333333333333 12.7163461538462  3.33333333333333 11.5  L 3.33333333333333 4.42307692307692  C 3.33333333333333 3.20673076923077  3.74131944444445 2.16546474358974  4.55729166666667 1.29927884615385  C 5.37326388888889 0.433092948717951  6.35416666666667 0  7.5 0  C 8.64583333333333 0  9.62673611111111 0.433092948717951  10.4427083333333 1.29927884615385  Z " fill-rule="nonzero" fill="#000000" stroke="none" transform="matrix(1 0 0 1 330 89 )" />
  </g>
</svg>