<?xml version="1.0" encoding="utf-8"?>
<svg version="1.1" xmlns:xlink="http://www.w3.org/1999/xlink" width="10px" height="21px" xmlns="http://www.w3.org/2000/svg">
  <g transform="matrix(1 0 0 1 -231 -237 )">
    <path d="M 9.66346153846154 7.52930056710775  C 9.88782051282051 7.60869565217391  10 7.81159420289855  10 8.13799621928166  C 10 8.33207309388784  9.94791666666667 8.54379332073094  9.84375 8.77315689981096  L 7.66225961538462 13.4574669187146  L 8.17908653846154 20.0737240075614  C 8.18309294871795 20.1354757403907  8.18509615384615 20.2236925015753  8.18509615384615 20.3383742911153  C 8.18509615384615 20.523629489603  8.1640625 20.6802142407057  8.12199519230769 20.8081285444234  C 8.07992788461539 20.9360428481411  8.01883012820513 21  7.93870192307692 21  C 7.86258012820513 21  7.78245192307692 20.9470699432892  7.69831730769231 20.8412098298677  L 5 17.7183364839319  L 2.30168269230769 20.8412098298677  C 2.21354166666667 20.9470699432892  2.13341346153846 21  2.06129807692308 21  C 1.97716346153846 21  1.9140625 20.9360428481411  1.87199519230769 20.8081285444234  C 1.82992788461538 20.6802142407057  1.80889423076923 20.523629489603  1.80889423076923 20.3383742911153  C 1.80889423076923 20.2854442344045  1.81290064102564 20.1972274732199  1.82091346153846 20.0737240075614  L 2.33774038461538 13.4574669187146  L 0.150240384615385 8.77315689981096  C 0.0500801282051282 8.53497164461248  0 8.32325141776938  0 8.13799621928166  C 0 7.81159420289855  0.112179487179487 7.60869565217391  0.336538461538462 7.52930056710775  L 3.35336538461538 6.5633270321361  L 4.70552884615385 0.542533081285443  C 4.78165064102564 0.18084436042848  4.87980769230769 0  5 0  C 5.12019230769231 0  5.21834935897436 0.18084436042848  5.29447115384615 0.542533081285443  L 6.64663461538462 6.5633270321361  L 9.66346153846154 7.52930056710775  Z " fill-rule="nonzero" fill="#333333" stroke="none" transform="matrix(1 0 0 1 231 237 )" />
  </g>
</svg>