<?xml version="1.0" encoding="utf-8"?>
<svg version="1.1" xmlns:xlink="http://www.w3.org/1999/xlink" width="50px" height="50px" xmlns="http://www.w3.org/2000/svg">
  <g transform="matrix(1 0 0 1 -15 -675 )">
    <path d="M 48.8960597826087 20.0417201540436  C 49.6320199275362 20.8440308087291  50 21.8121523320496  50 22.9460847240051  L 50 27.0539152759949  C 50 28.1878476679504  49.6320199275362 29.1559691912709  48.8960597826087 29.9582798459564  C 48.1600996376812 30.7605905006419  47.2033514492754 31.1617458279846  46.0258152173913 31  L 22.1127717391304 31  L 32.0652173913043 40.596919127086  C 32.9257246376812 41.3671373555841  33.3559782608696 42.3299101412067  33.3559782608696 43.4852374839538  C 33.3559782608696 44.6405648267009  32.9257246376812 45.6033376123235  32.0652173913043 46.3735558408216  L 29.5176630434783 48.8125802310655  C 28.6798007246377 49.6041934103552  27.6607789855072 50  26.460597826087 50  C 25.2830615942029 50  24.2527173913043 49.6041934103552  23.3695652173913 48.8125802310655  L 1.25679347826087 27.8883183568678  C 0.41893115942029 27.0967051775781  0 26.1339323919555  0 25  C 0 23.8874625588361  0.41893115942029 22.9139922978177  1.25679347826087 22.0795892169448  L 23.3695652173913 1.21951219512195  C 24.2300724637681 0.406504065040647  25.2604166666667 0  26.460597826087 0  C 27.638134057971 0  28.6571557971015 0.406504065040647  29.5176630434783 1.21951219512195  L 32.0652173913043 3.59435173299101  C 32.9257246376812 4.40735986307231  33.3559782608696 5.38083012409071  33.3559782608696 6.51476251604621  C 33.3559782608696 7.64869490800171  32.9257246376812 8.62216516902011  32.0652173913043 9.43517329910141  L 22.1127717391304 19  L 46.0258152173913 19  C 47.2033514492754 18.8382541720154  48.1600996376812 19.2394094993582  48.8960597826087 20.0417201540436  Z " fill-rule="nonzero" fill="#e8b913" stroke="none" transform="matrix(1 0 0 1 15 675 )" />
  </g>
</svg>