<?xml version="1.0" encoding="utf-8"?>
<svg version="1.1" xmlns:xlink="http://www.w3.org/1999/xlink" width="10px" height="21px" xmlns="http://www.w3.org/2000/svg">
  <g transform="matrix(1 0 0 1 -293 -237 )">
    <path d="M 6.83293269230769 12.8620037807183  L 7.12740384615385 12.2400756143667  L 8.671875 8.93194706994329  L 6.53245192307692 8.24385633270321  L 6.13581730769231 8.11153119092628  L 5.95552884615385 7.31758034026465  L 5 3.05671077504726  L 5 15.7996219281664  L 5.35456730769231 16.2098298676749  L 7.265625 18.4328922495274  L 6.90504807692308 13.7353497164461  L 6.83293269230769 12.8620037807183  Z M 9.98798076923077 7.98582230623819  C 10.0240384615385 8.2284183994959  9.97596153846154 8.49086326402016  9.84375 8.77315689981096  L 7.66225961538462 13.4574669187146  L 8.17908653846154 20.0737240075614  C 8.19911858974359 20.3648393194707  8.18709935897436 20.5919974795211  8.14302884615385 20.7551984877127  C 8.09895833333333 20.9183994959042  8.03084935897436 21  7.93870192307692 21  C 7.87059294871795 21  7.79046474358974 20.9470699432892  7.69831730769231 20.8412098298677  L 5 17.7183364839319  L 2.30168269230769 20.8412098298677  C 2.20953525641026 20.9470699432892  2.12940705128205 21  2.06129807692308 21  C 1.96915064102564 21  1.90104166666667 20.9183994959042  1.85697115384615 20.7551984877127  C 1.81290064102564 20.5919974795211  1.80088141025641 20.3648393194707  1.82091346153846 20.0737240075614  L 2.33774038461538 13.4574669187146  L 0.150240384615385 8.77315689981096  C 0.0220352564102564 8.49086326402016  -0.0240384615384615 8.2284183994959  0.0120192307692308 7.98582230623819  C 0.0480769230769231 7.74322621298047  0.15625 7.59105229993699  0.336538461538462 7.52930056710775  L 3.35336538461538 6.5633270321361  L 4.70552884615385 0.542533081285443  C 4.78565705128205 0.18084436042848  4.8838141025641 0  5 0  C 5.11217948717949 0  5.21033653846154 0.18084436042848  5.29447115384615 0.542533081285443  L 6.64663461538462 6.5633270321361  L 9.66346153846154 7.52930056710775  C 9.84375 7.59105229993699  9.95192307692308 7.74322621298047  9.98798076923077 7.98582230623819  Z " fill-rule="nonzero" fill="#333333" stroke="none" transform="matrix(1 0 0 1 293 237 )" />
  </g>
</svg>