<?xml version="1.0" encoding="utf-8"?>
<svg version="1.1" xmlns:xlink="http://www.w3.org/1999/xlink" width="50px" height="50px" xmlns="http://www.w3.org/2000/svg">
  <g transform="matrix(1 0 0 1 -295 -675 )">
    <path d="M 48.5212053571429 22.59375  C 49.507068452381 25.3854166666667  50 28.8541666666667  50 33  C 50 36.4583333333333  48.8188244047619 41.15625  46.4564732142857 47.09375  C 46.4006696428572 47.2395833333333  46.3030133928572 47.4895833333333  46.1635044642857 47.84375  C 46.0239955357143 48.1979166666667  45.8984375 48.5104166666667  45.7868303571429 48.78125  C 45.6752232142857 49.0520833333333  45.5543154761905 49.28125  45.4241071428571 49.46875  C 45.2008928571429 49.8229166666667  44.9404761904762 50  44.6428571428571 50  C 44.3638392857143 50  44.1452752976191 49.8958333333333  43.9871651785714 49.6875  C 43.8290550595238 49.4791666666667  43.75 49.21875  43.75 48.90625  C 43.75 48.71875  43.7732514880952 48.4427083333333  43.8197544642857 48.078125  C 43.8662574404762 47.7135416666667  43.8895089285714 47.46875  43.8895089285714 47.34375  C 43.9825148809524 45.9270833333333  44.0290178571429 44.6458333333333  44.0290178571429 43.5  C 44.0290178571429 41.3958333333333  43.8662574404762 39.5104166666667  43.5407366071429 37.84375  C 43.2152157738095 36.1770833333333  42.7641369047619 34.734375  42.1875 33.515625  C 41.6108630952381 32.296875  40.8668154761905 31.2447916666667  39.9553571428571 30.359375  C 39.0438988095238 29.4739583333333  38.0626860119048 28.75  37.01171875 28.1875  C 35.9607514880952 27.625  34.7237723214286 27.1822916666667  33.30078125 26.859375  C 31.8777901785714 26.5364583333333  30.4454985119048 26.3125  29.00390625 26.1875  C 27.5623139880952 26.0625  25.9300595238095 26  24.1071428571429 26  L 17.8571428571429 26  L 17.8571428571429 34  C 17.8571428571429 34.5416666666667  17.6804315476191 35.0104166666667  17.3270089285714 35.40625  C 16.9735863095238 35.8020833333333  16.5550595238095 36  16.0714285714286 36  C 15.5877976190476 36  15.1692708333333 35.8020833333333  14.8158482142857 35.40625  L 0.530133928571429 19.40625  C 0.17671130952381 19.0104166666667  0 18.5416666666667  0 18  C 0 17.4583333333333  0.17671130952381 16.9895833333333  0.530133928571429 16.59375  L 14.8158482142857 0.593749999999998  C 15.1692708333333 0.197916666666664  15.5877976190476 0  16.0714285714286 0  C 16.5550595238095 0  16.9735863095238 0.197916666666664  17.3270089285714 0.593749999999998  C 17.6804315476191 0.989583333333327  17.8571428571429 1.45833333333333  17.8571428571429 2  L 17.8571428571429 10  L 24.1071428571429 10  C 37.3697916666667 10  45.5078125 14.1979166666667  48.5212053571429 22.59375  Z " fill-rule="nonzero" fill="#e8b913" stroke="none" transform="matrix(1 0 0 1 295 675 )" />
  </g>
</svg>