<?xml version="1.0" encoding="utf-8"?>
<svg version="1.1" xmlns:xlink="http://www.w3.org/1999/xlink" width="50px" height="59px" xmlns="http://www.w3.org/2000/svg">
  <g transform="matrix(1 0 0 1 -169 -218 )">
    <path d="M 49.7349330357143 38.3456101190476  C 49.9116443452381 38.6236359126984  50 38.952876984127  50 39.3333333333333  L 50 47.7619047619048  C 50 48.1423611111111  49.9116443452381 48.4716021825397  49.7349330357143 48.7496279761905  C 49.5582217261905 49.0276537698413  49.3489583333333 49.1666666666667  49.1071428571429 49  L 10.7142857142857 49  L 10.7142857142857 57.5952380952381  C 10.7142857142857 57.9756944444445  10.6259300595238 58.304935515873  10.44921875 58.5829613095238  C 10.2725074404762 58.8609871031746  10.063244047619 59  9.82142857142857 59  C 9.59821428571429 59  9.375 58.8536706349206  9.15178571428571 58.5610119047619  L 0.251116071428571 44.5133928571429  C 0.0837053571428571 44.25  0 43.9280753968254  0 43.5476190476191  C 0 43.1378968253968  0.0837053571428571 42.8013392857143  0.251116071428571 42.5379464285714  L 9.1796875 28.4903273809524  C 9.34709821428571 28.2269345238095  9.56101190476191 28.0952380952381  9.82142857142857 28.0952380952381  C 10.063244047619 28.0952380952381  10.2725074404762 28.2342509920635  10.44921875 28.5122767857143  C 10.6259300595238 28.7903025793651  10.7142857142857 29.1195436507936  10.7142857142857 29.5  L 10.7142857142857 38  L 49.1071428571429 38  C 49.3489583333333 37.9285714285714  49.5582217261905 38.0675843253968  49.7349330357143 38.3456101190476  Z M 49.7488839285714 14.4427083333333  C 49.9162946428571 14.7061011904762  50 15.0426587301587  50 15.4523809523809  C 50 15.8621031746032  49.9162946428571 16.1986607142857  49.7488839285714 16.4620535714286  L 40.8203125 30.5096726190476  C 40.6529017857143 30.7730654761905  40.4389880952381 30.9047619047619  40.1785714285714 30.9047619047619  C 39.936755952381 30.9047619047619  39.7274925595238 30.7657490079365  39.55078125 30.4877232142857  C 39.3740699404762 30.2096974206349  39.2857142857143 29.8804563492063  39.2857142857143 29.5  L 39.2857142857143 21  L 0.892857142857143 21  C 0.651041666666667 21.0714285714286  0.441778273809524 20.9324156746032  0.265066964285714 20.6543898809524  C 0.0883556547619048 20.3763640873016  0 20.047123015873  0 19.6666666666667  L 0 11.2380952380952  C 0 10.8576388888889  0.0883556547619048 10.5283978174603  0.265066964285714 10.2503720238095  C 0.441778273809524 9.97234623015872  0.651041666666667 9.83333333333333  0.892857142857143 10  L 39.2857142857143 10  L 39.2857142857143 1.40476190476191  C 39.2857142857143 0.995039682539679  39.3694196428571 0.658482142857144  39.5368303571429 0.395089285714288  C 39.7042410714286 0.131696428571431  39.9181547619048 0  40.1785714285714 0  C 40.4017857142857 0  40.625 0.146329365079365  40.8482142857143 0.438988095238094  L 49.7488839285714 14.4427083333333  Z " fill-rule="nonzero" fill="#000000" stroke="none" transform="matrix(1 0 0 1 169 218 )" />
  </g>
</svg>