<?xml version="1.0" encoding="utf-8"?>
<svg version="1.1" xmlns:xlink="http://www.w3.org/1999/xlink" width="50px" height="50px" xmlns="http://www.w3.org/2000/svg">
  <g transform="matrix(1 0 0 1 -15 -680 )">
    <path d="M 16.8108258928571 24.2691029900332  C 17.5083705357143 23.4385382059801  17.8571428571429 22.4363233665559  17.8571428571429 21.2624584717608  C 17.8571428571429 20.0885935769657  17.5083705357143 19.0863787375415  16.8108258928571 18.2558139534884  C 16.11328125 17.4252491694352  15.2715773809524 17.0099667774086  14.2857142857143 17.0099667774086  C 13.2998511904762 17.0099667774086  12.4581473214286 17.4252491694352  11.7606026785714 18.2558139534884  C 11.0630580357143 19.0863787375415  10.7142857142857 20.0885935769657  10.7142857142857 21.2624584717608  C 10.7142857142857 22.4363233665559  11.0630580357143 23.4385382059801  11.7606026785714 24.2691029900332  C 12.4581473214286 25.0996677740864  13.2998511904762 25.514950166113  14.2857142857143 25.514950166113  C 15.2715773809524 25.514950166113  16.11328125 25.0996677740864  16.8108258928571 24.2691029900332  Z M 27.5251116071429 24.2691029900332  C 28.22265625 23.4385382059801  28.5714285714286 22.4363233665559  28.5714285714286 21.2624584717608  C 28.5714285714286 20.0885935769657  28.22265625 19.0863787375415  27.5251116071429 18.2558139534884  C 26.8275669642857 17.4252491694352  25.9858630952381 17.0099667774086  25 17.0099667774086  C 24.0141369047619 17.0099667774086  23.1724330357143 17.4252491694352  22.4748883928571 18.2558139534884  C 21.77734375 19.0863787375415  21.4285714285714 20.0885935769657  21.4285714285714 21.2624584717608  C 21.4285714285714 22.4363233665559  21.77734375 23.4385382059801  22.4748883928571 24.2691029900332  C 23.1724330357143 25.0996677740864  24.0141369047619 25.514950166113  25 25.514950166113  C 25.9858630952381 25.514950166113  26.8275669642857 25.0996677740864  27.5251116071429 24.2691029900332  Z M 38.2393973214286 24.2691029900332  C 38.9369419642857 23.4385382059801  39.2857142857143 22.4363233665559  39.2857142857143 21.2624584717608  C 39.2857142857143 20.0885935769657  38.9369419642857 19.0863787375415  38.2393973214286 18.2558139534884  C 37.5418526785714 17.4252491694352  36.7001488095238 17.0099667774086  35.7142857142857 17.0099667774086  C 34.7284226190476 17.0099667774086  33.88671875 17.4252491694352  33.1891741071429 18.2558139534884  C 32.4916294642857 19.0863787375415  32.1428571428571 20.0885935769657  32.1428571428571 21.2624584717608  C 32.1428571428571 22.4363233665559  32.4916294642857 23.4385382059801  33.1891741071429 24.2691029900332  C 33.88671875 25.0996677740864  34.7284226190476 25.514950166113  35.7142857142857 25.514950166113  C 36.7001488095238 25.514950166113  37.5418526785714 25.0996677740864  38.2393973214286 24.2691029900332  Z M 46.6517857142857 10.5813953488372  C 48.8839285714286 13.8482834994463  50 17.4086378737542  50 21.2624584717608  C 50 25.1162790697674  48.8839285714286 28.6766334440753  46.6517857142857 31.9435215946844  C 44.4196428571429 35.2104097452935  41.3876488095238 37.7906976744186  37.5558035714286 39.6843853820598  C 33.7239583333333 41.578073089701  29.5386904761905 42.5249169435216  25 42.5249169435216  C 22.9538690476191 42.5249169435216  20.991443452381 42.3255813953488  19.1127232142857 41.9269102990033  C 15.8947172619048 45.7585825027685  11.8489583333333 48.2945736434109  6.97544642857143 49.5348837209302  C 6.00818452380952 49.7563676633444  5.20833333333333 49.9003322259136  4.57589285714286 49.9667774086379  C 4.35267857142857 49.9889258028793  4.14806547619048 49.922480620155  3.96205357142857 49.7674418604651  C 3.77604166666667 49.6124031007752  3.65513392857143 49.4130675526024  3.59933035714286 49.1694352159468  C 3.5249255952381 48.8372093023256  3.7109375 48.4274640088594  4.15736607142857 47.9401993355482  C 4.25037202380952 47.8294573643411  4.46893601190476 47.5913621262458  4.81305803571429 47.2259136212625  C 5.15718005952381 46.8604651162791  5.39434523809524 46.6002214839424  5.52455357142857 46.4451827242525  C 5.65476190476191 46.2901439645626  5.87332589285714 46.0077519379845  6.18024553571429 45.5980066445183  C 6.48716517857143 45.188261351052  6.71037946428571 44.8394241417497  6.84988839285714 44.5514950166113  C 6.98939732142857 44.2635658914729  7.18005952380952 43.8538205980066  7.421875 43.3222591362126  C 7.66369047619048 42.7906976744186  7.84970238095238 42.2591362126246  7.97991071428571 41.7275747508306  C 8.11011904761905 41.1960132890366  8.24497767857143 40.5592469545958  8.38448660714286 39.8172757475083  C 8.52399553571429 39.0753045404208  8.64025297619048 38.2724252491694  8.73325892857143 37.4086378737542  C 6.01748511904762 35.4152823920266  3.88299851190476 33.0177187153931  2.32979910714286 30.2159468438538  C 0.776599702380952 27.4141749723145  0 24.4296788482835  0 21.2624584717608  C 0 17.4086378737542  1.11607142857143 13.8482834994463  3.34821428571429 10.5813953488372  C 5.58035714285714 7.31450719822812  8.61235119047619 4.73421926910299  12.4441964285714 2.8405315614618  C 16.2760416666667 0.9468438538206  20.4613095238095 0  25 0  C 29.5386904761905 0  33.7239583333333 0.9468438538206  37.5558035714286 2.8405315614618  C 41.3876488095238 4.73421926910299  44.4196428571429 7.31450719822812  46.6517857142857 10.5813953488372  Z " fill-rule="nonzero" fill="#e8b913" stroke="none" transform="matrix(1 0 0 1 15 680 )" />
  </g>
</svg>