<?xml version="1.0" encoding="utf-8"?>
<svg version="1.1" xmlns:xlink="http://www.w3.org/1999/xlink" width="27px" height="31px" xmlns="http://www.w3.org/2000/svg">
  <g transform="matrix(1 0 0 1 -108 -261 )">
    <path d="M 9.07784598214286 15.0468438538206  C 9.45452008928571 14.5318936877076  9.64285714285714 13.9105204872647  9.64285714285714 13.1827242524917  C 9.64285714285714 12.4549280177187  9.45452008928571 11.8335548172757  9.07784598214286 11.3186046511628  C 8.701171875 10.8036544850498  8.24665178571429 10.5461794019934  7.71428571428571 10.5461794019934  C 7.18191964285714 10.5461794019934  6.72739955357143 10.8036544850498  6.35072544642857 11.3186046511628  C 5.97405133928571 11.8335548172757  5.78571428571429 12.4549280177187  5.78571428571429 13.1827242524917  C 5.78571428571429 13.9105204872647  5.97405133928571 14.5318936877076  6.35072544642857 15.0468438538206  C 6.72739955357143 15.5617940199336  7.18191964285714 15.81926910299  7.71428571428571 15.81926910299  C 8.24665178571429 15.81926910299  8.701171875 15.5617940199336  9.07784598214286 15.0468438538206  Z M 14.8635602678571 15.0468438538206  C 15.240234375 14.5318936877076  15.4285714285714 13.9105204872647  15.4285714285714 13.1827242524917  C 15.4285714285714 12.4549280177187  15.240234375 11.8335548172757  14.8635602678571 11.3186046511628  C 14.4868861607143 10.8036544850498  14.0323660714286 10.5461794019934  13.5 10.5461794019934  C 12.9676339285714 10.5461794019934  12.5131138392857 10.8036544850498  12.1364397321429 11.3186046511628  C 11.759765625 11.8335548172757  11.5714285714286 12.4549280177187  11.5714285714286 13.1827242524917  C 11.5714285714286 13.9105204872647  11.759765625 14.5318936877076  12.1364397321429 15.0468438538206  C 12.5131138392857 15.5617940199336  12.9676339285714 15.81926910299  13.5 15.81926910299  C 14.0323660714286 15.81926910299  14.4868861607143 15.5617940199336  14.8635602678571 15.0468438538206  Z M 20.6492745535714 15.0468438538206  C 21.0259486607143 14.5318936877076  21.2142857142857 13.9105204872647  21.2142857142857 13.1827242524917  C 21.2142857142857 12.4549280177187  21.0259486607143 11.8335548172757  20.6492745535714 11.3186046511628  C 20.2726004464286 10.8036544850498  19.8180803571429 10.5461794019934  19.2857142857143 10.5461794019934  C 18.7533482142857 10.5461794019934  18.298828125 10.8036544850498  17.9221540178571 11.3186046511628  C 17.5454799107143 11.8335548172757  17.3571428571429 12.4549280177187  17.3571428571429 13.1827242524917  C 17.3571428571429 13.9105204872647  17.5454799107143 14.5318936877076  17.9221540178571 15.0468438538206  C 18.298828125 15.5617940199336  18.7533482142857 15.81926910299  19.2857142857143 15.81926910299  C 19.8180803571429 15.81926910299  20.2726004464286 15.5617940199336  20.6492745535714 15.0468438538206  Z M 25.1919642857143 6.56046511627907  C 26.3973214285714 8.5859357696567  27 10.7933554817276  27 13.1827242524917  C 27 15.5720930232558  26.3973214285714 17.7795127353267  25.1919642857143 19.8049833887043  C 23.9866071428571 21.8304540420819  22.3493303571429 23.4302325581395  20.2801339285714 24.6043189368771  C 18.2109375 25.7784053156146  15.9508928571429 26.3654485049834  13.5 26.3654485049834  C 12.3950892857143 26.3654485049834  11.3353794642857 26.2418604651163  10.3208705357143 25.9946843853821  C 8.58314732142857 28.3703211517165  6.3984375 29.9426356589147  3.76674107142857 30.7116279069767  C 3.24441964285714 30.8489479512735  2.8125 30.9382059800664  2.47098214285714 30.9794019933555  C 2.35044642857143 30.9931339977852  2.23995535714286 30.9519379844961  2.13950892857143 30.8558139534884  C 2.0390625 30.7596899224806  1.97377232142857 30.6361018826135  1.94363839285714 30.485049833887  C 1.90345982142857 30.2790697674419  2.00390625 30.0250276854928  2.24497767857143 29.7229235880399  C 2.29520089285714 29.6542635658915  2.41322544642857 29.5066445182724  2.59905133928571 29.2800664451827  C 2.78487723214286 29.053488372093  2.91294642857143 28.8921373200443  2.98325892857143 28.7960132890365  C 3.05357142857143 28.6998892580288  3.17159598214286 28.5248062015504  3.33733258928571 28.2707641196013  C 3.50306919642857 28.0167220376523  3.62360491071429 27.8004429678848  3.69893973214286 27.621926910299  C 3.77427455357143 27.4434108527132  3.87723214285714 27.1893687707641  4.0078125 26.8598006644518  C 4.13839285714286 26.5302325581395  4.23883928571429 26.2006644518272  4.30915178571429 25.8710963455149  C 4.37946428571429 25.5415282392027  4.45228794642857 25.1467331118494  4.52762276785714 24.6867109634552  C 4.60295758928571 24.2266888150609  4.66573660714286 23.728903654485  4.71595982142857 23.1933554817276  C 3.24944196428571 21.9574750830565  2.09681919642857 20.4709856035437  1.25809151785714 18.7338870431894  C 0.419363839285714 16.996788482835  0 15.1464008859358  0 13.1827242524917  C 0 10.7933554817276  0.602678571428571 8.5859357696567  1.80803571428571 6.56046511627907  C 3.01339285714286 4.53499446290143  4.65066964285714 2.93521594684385  6.71986607142857 1.76112956810631  C 8.7890625 0.587043189368772  11.0491071428571 0  13.5 0  C 15.9508928571429 0  18.2109375 0.587043189368772  20.2801339285714 1.76112956810631  C 22.3493303571429 2.93521594684385  23.9866071428571 4.53499446290143  25.1919642857143 6.56046511627907  Z " fill-rule="nonzero" fill="#e8b913" stroke="none" transform="matrix(1 0 0 1 108 261 )" />
  </g>
</svg>