<?xml version="1.0" encoding="utf-8"?>
<svg version="1.1" xmlns:xlink="http://www.w3.org/1999/xlink" width="25px" height="25px" xmlns="http://www.w3.org/2000/svg">
  <g transform="matrix(1 0 0 1 -300 -158 )">
    <path d="M 17.0823317307692 15.3119092627599  L 17.8185096153846 14.5715185885318  L 21.6796875 10.6332703213611  L 16.3311298076923 9.81411468178954  L 15.3395432692308 9.65658475110271  L 14.8888221153846 8.71140516698173  L 12.5 3.63894139886578  L 12.5 18.8090737240076  L 13.3864182692308 19.2974165091367  L 18.1640625 21.9439193446755  L 17.2626201923077 16.351606805293  L 17.0823317307692 15.3119092627599  Z M 24.9699519230769 9.50693131695022  C 25.0600961538462 9.79573618987608  24.9399038461539 10.108170552405  24.609375 10.4442344045369  L 19.1556490384615 16.0207939508507  L 20.4477163461538 23.8972904851922  C 20.497796474359 24.2438563327032  20.4677483974359 24.5142827137156  20.3575721153846 24.7085696282294  C 20.2473958333333 24.9028565427431  20.0771233974359 25  19.8467548076923 25  C 19.6764823717949 25  19.4761618589744 24.9369880277253  19.2457932692308 24.8109640831758  L 12.5 21.0932577189666  L 5.75420673076923 24.8109640831758  C 5.52383814102564 24.9369880277253  5.32351762820513 25  5.15324519230769 25  C 4.9228766025641 25  4.75260416666667 24.9028565427431  4.64242788461539 24.7085696282294  C 4.5322516025641 24.5142827137156  4.50220352564103 24.2438563327032  4.55228365384615 23.8972904851922  L 5.84435096153846 16.0207939508507  L 0.375600961538462 10.4442344045369  C 0.055088141025641 10.108170552405  -0.0600961538461538 9.79573618987608  0.0300480769230769 9.50693131695022  C 0.120192307692308 9.21812644402436  0.390625 9.03696702373451  0.841346153846154 8.96345305608066  L 8.38341346153846 7.81348456206679  L 11.7638221153846 0.645872715816004  C 11.9641426282051 0.215290905272  12.2095352564103 0  12.5 0  C 12.7804487179487 0  13.0258413461538 0.215290905272  13.2361778846154 0.645872715816004  L 16.6165865384615 7.81348456206679  L 24.1586538461538 8.96345305608066  C 24.609375 9.03696702373451  24.8798076923077 9.21812644402436  24.9699519230769 9.50693131695022  Z " fill-rule="nonzero" fill="#e8b913" stroke="none" transform="matrix(1 0 0 1 300 158 )" />
  </g>
</svg>