<?xml version="1.0" encoding="utf-8"?>
<svg version="1.1" xmlns:xlink="http://www.w3.org/1999/xlink" width="40px" height="40px" xmlns="http://www.w3.org/2000/svg">
  <g transform="matrix(1 0 0 1 -87 -315 )">
    <path d="M 38.6538461538462 14.341524889729  C 39.5512820512821 14.4927536231884  40 14.8792270531401  40 15.5009451795841  C 40 15.8706154169292  39.7916666666667 16.2738920394875  39.375 16.710775047259  L 30.6490384615385 25.6332703213611  L 32.7163461538462 38.2356647763075  C 32.7323717948718 38.3532871245537  32.7403846153846 38.5213190506196  32.7403846153846 38.7397605545054  C 32.7403846153846 39.0926275992439  32.65625 39.3908842680109  32.4879807692308 39.6345305608066  C 32.3197115384615 39.8781768536022  32.0753205128205 40  31.7548076923077 40  C 31.4503205128205 40  31.1298076923077 39.8991808443604  30.7932692307692 39.6975425330813  L 20 33.7492123503466  L 9.20673076923077 39.6975425330813  C 8.85416666666667 39.8991808443604  8.53365384615385 40  8.24519230769231 40  C 7.90865384615385 40  7.65625 39.8781768536022  7.48798076923077 39.6345305608066  C 7.31971153846154 39.3908842680109  7.23557692307692 39.0926275992439  7.23557692307692 38.7397605545054  C 7.23557692307692 38.6389413988658  7.25160256410256 38.4709094727998  7.28365384615385 38.2356647763075  L 9.35096153846154 25.6332703213611  L 0.600961538461538 16.710775047259  C 0.200320512820513 16.2570888468809  0 15.8538122243226  0 15.5009451795841  C 0 14.8792270531401  0.448717948717949 14.4927536231884  1.34615384615385 14.341524889729  L 13.4134615384615 12.5015752993069  L 18.8221153846154 1.03339634530561  C 19.1266025641026 0.344465448435201  19.5192307692308 0  20 0  C 20.4807692307692 0  20.8733974358974 0.344465448435201  21.1778846153846 1.03339634530561  L 26.5865384615385 12.5015752993069  L 38.6538461538462 14.341524889729  Z " fill-rule="nonzero" fill="#e8b913" stroke="none" transform="matrix(1 0 0 1 87 315 )" />
  </g>
</svg>