<?xml version="1.0" encoding="utf-8"?>
<svg version="1.1" xmlns:xlink="http://www.w3.org/1999/xlink" width="48px" height="43px" xmlns="http://www.w3.org/2000/svg">
  <g transform="matrix(1 0 0 1 -304 -491 )">
    <path d="M 46.2866703848299 0  C 46.643614054657 0  46.9648633575014 0.0879836309523848  47.2504182933631 0.263950892857145  C 47.8393753485778 0.647879464285715  48.0803123257111 1.15978422619047  47.973229224763 1.79966517857143  L 41.1199107640825 38.6568080357143  C 41.0306748466258 39.1207217261905  40.7451199107641 39.4806547619048  40.2632459564975 39.7366071428571  C 40.0133853876185 39.8645833333333  39.7367540435025 39.9285714285714  39.4333519241495 39.9285714285714  C 39.2370329057446 39.9285714285714  39.0228667038483 39.8885788690476  38.7908533184607 39.80859375  L 26.6636921360848 35.3694196428571  L 20.1851645287228 42.4481026785714  C 19.8639152258784 42.8160342261905  19.4266592303402 43  18.8733965421082 43  C 18.6413831567206 43  18.4450641383157 42.968005952381  18.2844394868935 42.9040178571429  C 17.9453430005577 42.7920386904762  17.6731734523146 42.6040736607143  17.467930842164 42.3401227678571  C 17.2626882320134 42.076171875  17.1600669269381 41.7842261904762  17.1600669269381 41.4642857142857  L 17.1600669269381 33.08984375  L 40.2900167317345 7.67857142857143  L 11.6720580033463 29.8744419642857  L 1.09760178471835 25.9871651785714  C 0.437255995538204 25.7632068452381  0.0803123257110987 25.3232886904762  0.0267707752370329 24.6674107142857  C -0.00892359174567764 24.0275297619048  0.276631344116007 23.5556175595238  0.883435582822086 23.2516741071429  L 45.4300055772448 0.21595982142857  C 45.6977133296152 0.0719866071428551  45.9832682654769 0  46.2866703848299 0  Z " fill-rule="nonzero" fill="#e8b913" stroke="none" transform="matrix(1 0 0 1 304 491 )" />
  </g>
</svg>