<?xml version="1.0" encoding="utf-8"?>
<svg version="1.1" xmlns:xlink="http://www.w3.org/1999/xlink" width="40px" height="40px" xmlns="http://www.w3.org/2000/svg">
  <g transform="matrix(1 0 0 1 -247 -315 )">
    <path d="M 27.3317307692308 24.4990548204159  L 28.5096153846154 23.3144297416509  L 34.6875 17.0132325141777  L 26.1298076923077 15.7025834908633  L 24.5432692307692 15.4505356017643  L 23.8221153846154 13.9382482671708  L 20 5.82230623818525  L 20 30.0945179584121  L 21.4182692307692 30.8758664146188  L 29.0625 35.1102709514808  L 27.6201923076923 26.1625708884688  L 27.3317307692308 24.4990548204159  Z M 39.9519230769231 15.2110901071204  C 40.0961538461539 15.6731779038017  39.9038461538462 16.1730728838479  39.375 16.710775047259  L 30.6490384615385 25.6332703213611  L 32.7163461538462 38.2356647763075  C 32.7964743589744 38.7901701323251  32.7483974358974 39.222852341945  32.5721153846154 39.533711405167  C 32.3958333333333 39.844570468389  32.1233974358974 40  31.7548076923077 40  C 31.4823717948718 40  31.161858974359 39.8991808443604  30.7932692307692 39.6975425330813  L 20 33.7492123503466  L 9.20673076923077 39.6975425330813  C 8.83814102564103 39.8991808443604  8.51762820512821 40  8.24519230769231 40  C 7.87660256410256 40  7.60416666666667 39.844570468389  7.42788461538462 39.533711405167  C 7.25160256410256 39.222852341945  7.20352564102564 38.7901701323251  7.28365384615385 38.2356647763075  L 9.35096153846154 25.6332703213611  L 0.600961538461538 16.710775047259  C 0.0881410256410256 16.1730728838479  -0.0961538461538462 15.6731779038017  0.0480769230769231 15.2110901071204  C 0.192307692307692 14.749002310439  0.625 14.4591472379752  1.34615384615385 14.341524889729  L 13.4134615384615 12.5015752993069  L 18.8221153846154 1.03339634530561  C 19.1426282051282 0.344465448435201  19.5352564102564 0  20 0  C 20.448717948718 0  20.8413461538462 0.344465448435201  21.1778846153846 1.03339634530561  L 26.5865384615385 12.5015752993069  L 38.6538461538462 14.341524889729  C 39.375 14.4591472379752  39.8076923076923 14.749002310439  39.9519230769231 15.2110901071204  Z " fill-rule="nonzero" fill="#e8b913" stroke="none" transform="matrix(1 0 0 1 247 315 )" />
  </g>
</svg>